<?xml version="1.0" encoding="UTF-8"?>
<!--Generator: Apple Native CoreSVG 326-->
<!DOCTYPE svg
PUBLIC "-//W3C//DTD SVG 1.1//EN"
       "http://www.w3.org/Graphics/SVG/1.1/DTD/svg11.dtd">
<svg version="1.1" xmlns="http://www.w3.org/2000/svg" xmlns:xlink="http://www.w3.org/1999/xlink" viewBox="0 0 107.633 87.0137">
 <g>
  <rect height="87.0137" opacity="0" width="107.633" x="0" y="0"/>
  <path d="M0 43.4844C0 44.6973 0.494141 45.8203 1.48242 46.7188L40.3398 85.6211C41.3281 86.5195 42.3164 86.9688 43.4844 86.9688C45.9551 86.9688 47.7969 85.1719 47.7969 82.7461C47.7969 81.5781 47.3926 80.4102 46.6289 79.6016L30.8613 63.6992L9.88281 44.3379L8.84961 46.8535L26.5488 47.8418L103.32 47.8418C105.836 47.8418 107.633 46 107.633 43.4844C107.633 40.9238 105.836 39.127 103.32 39.127L26.5488 39.127L8.84961 40.0703L9.88281 42.6309L30.8613 23.2695L46.6289 7.32227C47.3926 6.51367 47.7969 5.39062 47.7969 4.22266C47.7969 1.79688 45.9551 0 43.4844 0C42.3164 0 41.2383 0.404297 40.0703 1.57227L1.48242 40.2051C0.494141 41.1484 0 42.2715 0 43.4844Z" fill="white" fill-opacity="0.85"/>
 </g>
</svg>
