<?xml version="1.0" encoding="UTF-8"?>
<!--Generator: Apple Native CoreSVG 326-->
<!DOCTYPE svg
PUBLIC "-//W3C//DTD SVG 1.1//EN"
       "http://www.w3.org/Graphics/SVG/1.1/DTD/svg11.dtd">
<svg version="1.1" xmlns="http://www.w3.org/2000/svg" xmlns:xlink="http://www.w3.org/1999/xlink" viewBox="0 0 101.613 143.795">
 <g>
  <rect height="143.795" opacity="0" width="101.613" x="0" y="0"/>
  <path d="M101.613 58.2637L101.613 115.898C101.613 127.309 95.7734 133.193 84.1387 133.193L17.4746 133.193C5.88477 133.193 0 127.398 0 115.898L0 58.2637C0 46.7637 5.97461 40.9238 17.5645 40.9238L36.7461 40.9238L36.7461 48.9199L17.6992 48.9199C11.4102 48.9199 7.95117 52.2441 7.95117 58.668L7.95117 115.449C7.95117 121.918 11.3652 125.242 17.6543 125.242L83.959 125.242C90.1133 125.242 93.6621 121.918 93.6621 115.449L93.6621 58.668C93.6621 52.2441 90.1133 48.9199 83.959 48.9199L64.8672 48.9199L64.8672 40.9238L84.1387 40.9238C95.7734 40.9238 101.613 46.8086 101.613 58.2637Z" fill="white" fill-opacity="0.85"/>
  <path d="M50.8516 11.2305C48.6953 11.2305 46.8984 12.9824 46.8984 15.0938L46.8984 75.3789L47.2129 83.9141L43.6191 80.1855L33.8711 69.9434C33.1523 69.1348 32.0742 68.7305 31.1309 68.7305C29.0645 68.7305 27.5371 70.2129 27.5371 72.2344C27.5371 73.3125 27.9863 74.0762 28.75 74.8398L47.9766 93.5723C48.9648 94.5156 49.8184 94.875 50.8516 94.875C51.8398 94.875 52.6934 94.5156 53.6816 93.5723L72.9082 74.8398C73.6719 74.0762 74.0762 73.3125 74.0762 72.2344C74.0762 70.2129 72.5039 68.7305 70.4824 68.7305C69.5391 68.7305 68.5059 69.1348 67.7871 69.9434L57.9941 80.1855L54.4902 83.8691L54.7598 75.3789L54.7598 15.0938C54.7598 12.9824 52.9629 11.2305 50.8516 11.2305Z" fill="white" fill-opacity="0.85"/>
 </g>
</svg>
